<svg width="395" height="366" version="1.1" xmlns="http://www.w3.org/2000/svg" desc="Created with imagetracer.js version 1.2.6" ><path fill="rgb(90,90,90)" stroke="rgb(90,90,90)" stroke-width="1" opacity="1" d="M 188.5 56 L 207 56.5 L 188.5 57 L 188.5 56 Z " /><path fill="rgb(90,90,90)" stroke="rgb(90,90,90)" stroke-width="1" opacity="1" d="M 178.5 57 L 181 57.5 L 178.5 58 L 178.5 57 Z " /><path fill="rgb(90,90,90)" stroke="rgb(90,90,90)" stroke-width="1" opacity="1" d="M 213.5 57 L 216 57.5 L 213.5 58 L 213.5 57 Z " /><path fill="rgb(90,90,90)" stroke="rgb(90,90,90)" stroke-width="1" opacity="1" d="M 182.5 67 L 185 67.5 L 182.5 68 L 182.5 67 Z " /><path fill="rgb(90,90,90)" stroke="rgb(90,90,90)" stroke-width="1" opacity="1" d="M 208.5 67 L 212 67.5 L 208.5 68 L 208.5 67 Z " /><path fill="rgb(90,90,90)" stroke="rgb(90,90,90)" stroke-width="1" opacity="1" d="M 232.5 79 L 231.5 81 L 232.5 79 Z " /><path fill="rgb(90,90,90)" stroke="rgb(90,90,90)" stroke-width="1" opacity="1" d="M 271.5 80 L 272.5 82 L 271.5 80 Z " /><path fill="rgb(90,90,90)" stroke="rgb(90,90,90)" stroke-width="1" opacity="1" d="M 118.5 83 L 117.5 85 L 118.5 83 Z " /><path fill="rgb(90,90,90)" stroke="rgb(90,90,90)" stroke-width="1" opacity="1" d="M 226.5 83 L 225.5 85 L 226.5 83 Z " /><path fill="rgb(90,90,90)" stroke="rgb(90,90,90)" stroke-width="1" opacity="1" d="M 275.5 83 L 276.5 85 L 275.5 83 Z " /><path fill="rgb(90,90,90)" stroke="rgb(90,90,90)" stroke-width="1" opacity="1" d="M 258.5 84 L 260.5 87 L 258.5 84 Z " /><path fill="rgb(90,90,90)" stroke="rgb(90,90,90)" stroke-width="1" opacity="1" d="M 222.5 86 L 221.5 88 L 222.5 86 Z " /><path fill="rgb(90,90,90)" stroke="rgb(90,90,90)" stroke-width="1" opacity="1" d="M 130.5 87 L 129.5 89 L 130.5 87 Z " /><path fill="rgb(90,90,90)" stroke="rgb(90,90,90)" stroke-width="1" opacity="1" d="M 112.5 88 L 102.5 99 L 112.5 88 Z " /><path fill="rgb(90,90,90)" stroke="rgb(90,90,90)" stroke-width="1" opacity="1" d="M 281.5 88 L 291.5 99 L 281.5 88 Z " /><path fill="rgb(90,90,90)" stroke="rgb(90,90,90)" stroke-width="1" opacity="1" d="M 126.5 90 L 125.5 92 L 126.5 90 Z " /><path fill="rgb(90,90,90)" stroke="rgb(90,90,90)" stroke-width="1" opacity="1" d="M 216.5 91 L 213.5 95 L 216.5 91 Z " /><path fill="rgb(90,90,90)" stroke="rgb(90,90,90)" stroke-width="1" opacity="1" d="M 230.5 93 L 229.5 95 L 230.5 93 Z " /><path fill="rgb(90,90,90)" stroke="rgb(90,90,90)" stroke-width="1" opacity="1" d="M 121.5 94 L 119.5 97 L 121.5 94 Z " /><path fill="rgb(90,90,90)" stroke="rgb(90,90,90)" stroke-width="1" opacity="1" d="M 225.5 97 L 224.5 99 L 225.5 97 Z " /><path fill="rgb(90,90,90)" stroke="rgb(90,90,90)" stroke-width="1" opacity="1" d="M 273.5 97 L 274 102.5 L 273 102.5 L 273.5 97 Z " /><path fill="rgb(90,90,90)" stroke="rgb(90,90,90)" stroke-width="1" opacity="1" d="M 98.5 103 L 97.5 105 L 98.5 103 Z " /><path fill="rgb(90,90,90)" stroke="rgb(90,90,90)" stroke-width="1" opacity="1" d="M 295.5 103 L 296.5 105 L 295.5 103 Z " /><path fill="rgb(90,90,90)" stroke="rgb(90,90,90)" stroke-width="1" opacity="1" d="M 217.5 104 L 210.5 112 L 217.5 104 Z " /><path fill="rgb(90,90,90)" stroke="rgb(90,90,90)" stroke-width="1" opacity="1" d="M 262.5 105 L 263 107.5 L 262 107.5 L 262.5 105 Z " /><path fill="rgb(90,90,90)" stroke="rgb(90,90,90)" stroke-width="1" opacity="1" d="M 283.5 105 L 285.5 108 L 283.5 105 Z " /><path fill="rgb(90,90,90)" stroke="rgb(90,90,90)" stroke-width="1" opacity="1" d="M 109.5 106 L 107.5 109 L 109.5 106 Z " /><path fill="rgb(90,90,90)" stroke="rgb(90,90,90)" stroke-width="1" opacity="1" d="M 95.5 107 L 94.5 109 L 95.5 107 Z " /><path fill="rgb(90,90,90)" stroke="rgb(90,90,90)" stroke-width="1" opacity="1" d="M 200.5 107 L 197.5 111 L 200.5 107 Z " /><path fill="rgb(90,90,90)" stroke="rgb(90,90,90)" stroke-width="1" opacity="1" d="M 288.5 111 L 289.5 113 L 288.5 111 Z " /><path fill="rgb(90,90,90)" stroke="rgb(90,90,90)" stroke-width="1" opacity="1" d="M 291.5 115 L 292.5 117 L 291.5 115 Z " /><path fill="rgb(90,90,90)" stroke="rgb(90,90,90)" stroke-width="1" opacity="1" d="M 189.5 118 L 188.5 120 L 189.5 118 Z " /><path fill="rgb(90,90,90)" stroke="rgb(90,90,90)" stroke-width="1" opacity="1" d="M 204.5 118 L 203.5 120 L 204.5 118 Z " /><path fill="rgb(90,90,90)" stroke="rgb(90,90,90)" stroke-width="1" opacity="1" d="M 140.5 132 L 144 132.5 L 140.5 133 L 140.5 132 Z " /><path fill="rgb(90,90,90)" stroke="rgb(90,90,90)" stroke-width="1" opacity="1" d="M 157.5 132 L 160 132.5 L 157.5 133 L 157.5 132 Z " /><path fill="rgb(90,90,90)" stroke="rgb(90,90,90)" stroke-width="1" opacity="1" d="M 110.5 137 L 113.5 141 L 110.5 137 Z " /><path fill="rgb(90,90,90)" stroke="rgb(90,90,90)" stroke-width="1" opacity="1" d="M 196.5 137 L 197 139.5 L 196 139.5 L 196.5 137 Z " /><path fill="rgb(90,90,90)" stroke="rgb(90,90,90)" stroke-width="1" opacity="1" d="M 185.5 141 L 186 146.5 L 185 146.5 L 185.5 141 Z " /><path fill="rgb(90,90,90)" stroke="rgb(90,90,90)" stroke-width="1" opacity="1" d="M 136.5 142 L 139 142.5 L 136.5 143 L 136.5 142 Z " /><path fill="rgb(90,90,90)" stroke="rgb(90,90,90)" stroke-width="1" opacity="1" d="M 130.5 143 L 131.5 145 L 130.5 143 Z " /><path fill="rgb(90,90,90)" stroke="rgb(90,90,90)" stroke-width="1" opacity="1" d="M 146.5 143 L 154 143.5 L 146.5 144 L 146.5 143 Z " /><path fill="rgb(90,90,90)" stroke="rgb(90,90,90)" stroke-width="1" opacity="1" d="M 117.5 144 L 120.5 148 L 117.5 144 Z " /><path fill="rgb(90,90,90)" stroke="rgb(90,90,90)" stroke-width="1" opacity="1" d="M 196.5 149 L 197 151.5 L 196 151.5 L 196.5 149 Z " /><path fill="rgb(90,90,90)" stroke="rgb(90,90,90)" stroke-width="1" opacity="1" d="M 123.5 151 L 124.5 153 L 123.5 151 Z " /><path fill="rgb(90,90,90)" stroke="rgb(90,90,90)" stroke-width="1" opacity="1" d="M 71.5 164 L 72 166.5 L 71 166.5 L 71.5 164 Z " /><path fill="rgb(90,90,90)" stroke="rgb(90,90,90)" stroke-width="1" opacity="1" d="M 322.5 164 L 323 166.5 L 322 166.5 L 322.5 164 Z " /><path fill="rgb(90,90,90)" stroke="rgb(90,90,90)" stroke-width="1" opacity="1" d="M 81.5 168 L 82 171.5 L 81 171.5 L 81.5 168 Z " /><path fill="rgb(90,90,90)" stroke="rgb(90,90,90)" stroke-width="1" opacity="1" d="M 312.5 168 L 313 170.5 L 312 170.5 L 312.5 168 Z " /><path fill="rgb(90,90,90)" stroke="rgb(90,90,90)" stroke-width="1" opacity="1" d="M 70.5 173 L 71 191.5 L 70 191.5 L 70.5 173 Z " /><path fill="rgb(90,90,90)" stroke="rgb(90,90,90)" stroke-width="1" opacity="1" d="M 323.5 174 L 324 192.5 L 323 192.5 L 323.5 174 Z " /><path fill="rgb(90,90,90)" stroke="rgb(90,90,90)" stroke-width="1" opacity="1" d="M 208.5 177 L 209.5 179 L 208.5 177 Z " /><path fill="rgb(90,90,90)" stroke="rgb(90,90,90)" stroke-width="1" opacity="1" d="M 212.5 182 L 219.5 190 L 212.5 182 Z " /><path fill="rgb(90,90,90)" stroke="rgb(90,90,90)" stroke-width="1" opacity="1" d="M 192.5 184 L 196 184.5 L 192.5 185 L 192.5 184 Z " /><path fill="rgb(90,90,90)" stroke="rgb(90,90,90)" stroke-width="1" opacity="1" d="M 199.5 185 L 202 185.5 L 199.5 186 L 199.5 185 Z " /><path fill="rgb(90,90,90)" stroke="rgb(90,90,90)" stroke-width="1" opacity="1" d="M 148.5 186 L 149 195.5 L 148 195.5 L 148.5 186 Z " /><path fill="rgb(90,90,90)" stroke="rgb(90,90,90)" stroke-width="1" opacity="1" d="M 223.5 192 L 224.5 194 L 223.5 192 Z " /><path fill="rgb(90,90,90)" stroke="rgb(90,90,90)" stroke-width="1" opacity="1" d="M 179.5 194 L 191 194.5 L 179.5 195 L 179.5 194 Z " /><path fill="rgb(90,90,90)" stroke="rgb(90,90,90)" stroke-width="1" opacity="1" d="M 312.5 194 L 313 197.5 L 312 197.5 L 312.5 194 Z " /><path fill="rgb(90,90,90)" stroke="rgb(90,90,90)" stroke-width="1" opacity="1" d="M 81.5 195 L 82 197.5 L 81 197.5 L 81.5 195 Z " /><path fill="rgb(90,90,90)" stroke="rgb(90,90,90)" stroke-width="1" opacity="1" d="M 195.5 195 L 198 195.5 L 195.5 196 L 195.5 195 Z " /><path fill="rgb(90,90,90)" stroke="rgb(90,90,90)" stroke-width="1" opacity="1" d="M 137.5 197 L 138 199.5 L 137 199.5 L 137.5 197 Z " /><path fill="rgb(90,90,90)" stroke="rgb(90,90,90)" stroke-width="1" opacity="1" d="M 71.5 199 L 72 201.5 L 71 201.5 L 71.5 199 Z " /><path fill="rgb(90,90,90)" stroke="rgb(90,90,90)" stroke-width="1" opacity="1" d="M 322.5 199 L 323 201.5 L 322 201.5 L 322.5 199 Z " /><path fill="rgb(90,90,90)" stroke="rgb(90,90,90)" stroke-width="1" opacity="1" d="M 207.5 225 L 206.5 227 L 207.5 225 Z " /><path fill="rgb(90,90,90)" stroke="rgb(90,90,90)" stroke-width="1" opacity="1" d="M 219.5 226 L 218.5 228 L 219.5 226 Z " /><path fill="rgb(90,90,90)" stroke="rgb(90,90,90)" stroke-width="1" opacity="1" d="M 204.5 229 L 203.5 231 L 204.5 229 Z " /><path fill="rgb(90,90,90)" stroke="rgb(90,90,90)" stroke-width="1" opacity="1" d="M 201.5 233 L 200.5 235 L 201.5 233 Z " /><path fill="rgb(90,90,90)" stroke="rgb(90,90,90)" stroke-width="1" opacity="1" d="M 197.5 238 L 195.5 241 L 197.5 238 Z " /><path fill="rgb(90,90,90)" stroke="rgb(90,90,90)" stroke-width="1" opacity="1" d="M 207.5 242 L 206.5 244 L 207.5 242 Z " /><path fill="rgb(90,90,90)" stroke="rgb(90,90,90)" stroke-width="1" opacity="1" d="M 192.5 244 L 189.5 248 L 192.5 244 Z " /><path fill="rgb(90,90,90)" stroke="rgb(90,90,90)" stroke-width="1" opacity="1" d="M 202.5 248 L 201.5 250 L 202.5 248 Z " /><path fill="rgb(90,90,90)" stroke="rgb(90,90,90)" stroke-width="1" opacity="1" d="M 101.5 249 L 102.5 251 L 101.5 249 Z " /><path fill="rgb(90,90,90)" stroke="rgb(90,90,90)" stroke-width="1" opacity="1" d="M 104.5 253 L 105.5 255 L 104.5 253 Z " /><path fill="rgb(90,90,90)" stroke="rgb(90,90,90)" stroke-width="1" opacity="1" d="M 183.5 254 L 176.5 262 L 183.5 254 Z " /><path fill="rgb(90,90,90)" stroke="rgb(90,90,90)" stroke-width="1" opacity="1" d="M 196.5 255 L 193.5 259 L 196.5 255 Z " /><path fill="rgb(90,90,90)" stroke="rgb(90,90,90)" stroke-width="1" opacity="1" d="M 286.5 257 L 284.5 260 L 286.5 257 Z " /><path fill="rgb(90,90,90)" stroke="rgb(90,90,90)" stroke-width="1" opacity="1" d="M 299.5 257 L 298.5 259 L 299.5 257 Z " /><path fill="rgb(90,90,90)" stroke="rgb(90,90,90)" stroke-width="1" opacity="1" d="M 108.5 258 L 110.5 261 L 108.5 258 Z " /><path fill="rgb(90,90,90)" stroke="rgb(90,90,90)" stroke-width="1" opacity="1" d="M 131.5 258 L 132 260.5 L 131 260.5 L 131.5 258 Z " /><path fill="rgb(90,90,90)" stroke="rgb(90,90,90)" stroke-width="1" opacity="1" d="M 97.5 261 L 98.5 263 L 97.5 261 Z " /><path fill="rgb(90,90,90)" stroke="rgb(90,90,90)" stroke-width="1" opacity="1" d="M 296.5 261 L 295.5 263 L 296.5 261 Z " /><path fill="rgb(90,90,90)" stroke="rgb(90,90,90)" stroke-width="1" opacity="1" d="M 120.5 263 L 121 268.5 L 120 268.5 L 120.5 263 Z " /><path fill="rgb(90,90,90)" stroke="rgb(90,90,90)" stroke-width="1" opacity="1" d="M 102.5 267 L 112.5 278 L 102.5 267 Z " /><path fill="rgb(90,90,90)" stroke="rgb(90,90,90)" stroke-width="1" opacity="1" d="M 169.5 267 L 168.5 269 L 169.5 267 Z " /><path fill="rgb(90,90,90)" stroke="rgb(90,90,90)" stroke-width="1" opacity="1" d="M 291.5 267 L 281.5 278 L 291.5 267 Z " /><path fill="rgb(90,90,90)" stroke="rgb(90,90,90)" stroke-width="1" opacity="1" d="M 274.5 269 L 272.5 272 L 274.5 269 Z " /><path fill="rgb(90,90,90)" stroke="rgb(90,90,90)" stroke-width="1" opacity="1" d="M 164.5 271 L 163.5 273 L 164.5 271 Z " /><path fill="rgb(90,90,90)" stroke="rgb(90,90,90)" stroke-width="1" opacity="1" d="M 180.5 271 L 177.5 275 L 180.5 271 Z " /><path fill="rgb(90,90,90)" stroke="rgb(90,90,90)" stroke-width="1" opacity="1" d="M 268.5 274 L 267.5 276 L 268.5 274 Z " /><path fill="rgb(90,90,90)" stroke="rgb(90,90,90)" stroke-width="1" opacity="1" d="M 264.5 277 L 263.5 279 L 264.5 277 Z " /><path fill="rgb(90,90,90)" stroke="rgb(90,90,90)" stroke-width="1" opacity="1" d="M 172.5 278 L 171.5 280 L 172.5 278 Z " /><path fill="rgb(90,90,90)" stroke="rgb(90,90,90)" stroke-width="1" opacity="1" d="M 133.5 279 L 135.5 282 L 133.5 279 Z " /><path fill="rgb(90,90,90)" stroke="rgb(90,90,90)" stroke-width="1" opacity="1" d="M 117.5 281 L 118.5 283 L 117.5 281 Z " /><path fill="rgb(90,90,90)" stroke="rgb(90,90,90)" stroke-width="1" opacity="1" d="M 168.5 281 L 167.5 283 L 168.5 281 Z " /><path fill="rgb(90,90,90)" stroke="rgb(90,90,90)" stroke-width="1" opacity="1" d="M 276.5 281 L 275.5 283 L 276.5 281 Z " /><path fill="rgb(90,90,90)" stroke="rgb(90,90,90)" stroke-width="1" opacity="1" d="M 121.5 284 L 122.5 286 L 121.5 284 Z " /><path fill="rgb(90,90,90)" stroke="rgb(90,90,90)" stroke-width="1" opacity="1" d="M 162.5 285 L 161.5 287 L 162.5 285 Z " /><path fill="rgb(90,90,90)" stroke="rgb(90,90,90)" stroke-width="1" opacity="1" d="M 182.5 298 L 186 298.5 L 182.5 299 L 182.5 298 Z " /><path fill="rgb(90,90,90)" stroke="rgb(90,90,90)" stroke-width="1" opacity="1" d="M 209.5 298 L 212 298.5 L 209.5 299 L 209.5 298 Z " /><path fill="rgb(90,90,90)" stroke="rgb(90,90,90)" stroke-width="1" opacity="1" d="M 178.5 308 L 181 308.5 L 178.5 309 L 178.5 308 Z " /><path fill="rgb(90,90,90)" stroke="rgb(90,90,90)" stroke-width="1" opacity="1" d="M 213.5 308 L 216 308.5 L 213.5 309 L 213.5 308 Z " /><path fill="rgb(90,90,90)" stroke="rgb(90,90,90)" stroke-width="1" opacity="1" d="M 187.5 309 L 206 309.5 L 187.5 310 L 187.5 309 Z " /><path fill="rgb(189,189,189)" stroke="rgb(189,189,189)" stroke-width="1" opacity="1" d="M 181.5 57 L 184 57.5 L 181.5 58 L 181.5 57 Z " /><path fill="rgb(189,189,189)" stroke="rgb(189,189,189)" stroke-width="1" opacity="1" d="M 210.5 57 L 213 57.5 L 210.5 58 L 210.5 57 Z " /><path fill="rgb(189,189,189)" stroke="rgb(189,189,189)" stroke-width="1" opacity="1" d="M 190.5 66 L 204 66.5 L 190.5 67 L 190.5 66 Z " /><path fill="rgb(189,189,189)" stroke="rgb(189,189,189)" stroke-width="1" opacity="1" d="M 121.5 81 L 120.5 83 L 121.5 81 Z " /><path fill="rgb(189,189,189)" stroke="rgb(189,189,189)" stroke-width="1" opacity="1" d="M 116.5 85 L 115.5 87 L 116.5 85 Z " /><path fill="rgb(189,189,189)" stroke="rgb(189,189,189)" stroke-width="1" opacity="1" d="M 277.5 85 L 278.5 87 L 277.5 85 Z " /><path fill="rgb(189,189,189)" stroke="rgb(189,189,189)" stroke-width="1" opacity="1" d="M 220.5 88 L 219.5 90 L 220.5 88 Z " /><path fill="rgb(189,189,189)" stroke="rgb(189,189,189)" stroke-width="1" opacity="1" d="M 123.5 92 L 122.5 94 L 123.5 92 Z " /><path fill="rgb(189,189,189)" stroke="rgb(189,189,189)" stroke-width="1" opacity="1" d="M 212.5 95 L 201.5 107 L 212.5 95 Z " /><path fill="rgb(189,189,189)" stroke="rgb(189,189,189)" stroke-width="1" opacity="1" d="M 227.5 95 L 226.5 97 L 227.5 95 Z " /><path fill="rgb(189,189,189)" stroke="rgb(189,189,189)" stroke-width="1" opacity="1" d="M 100.5 101 L 99.5 103 L 100.5 101 Z " /><path fill="rgb(189,189,189)" stroke="rgb(189,189,189)" stroke-width="1" opacity="1" d="M 220.5 101 L 218.5 104 L 220.5 101 Z " /><path fill="rgb(189,189,189)" stroke="rgb(189,189,189)" stroke-width="1" opacity="1" d="M 293.5 101 L 294.5 103 L 293.5 101 Z " /><path fill="rgb(189,189,189)" stroke="rgb(189,189,189)" stroke-width="1" opacity="1" d="M 297.5 106 L 298.5 108 L 297.5 106 Z " /><path fill="rgb(189,189,189)" stroke="rgb(189,189,189)" stroke-width="1" opacity="1" d="M 272.5 107 L 273 109.5 L 272 109.5 L 272.5 107 Z " /><path fill="rgb(189,189,189)" stroke="rgb(189,189,189)" stroke-width="1" opacity="1" d="M 262.5 108 L 263 110.5 L 262 110.5 L 262.5 108 Z " /><path fill="rgb(189,189,189)" stroke="rgb(189,189,189)" stroke-width="1" opacity="1" d="M 286.5 108 L 287.5 110 L 286.5 108 Z " /><path fill="rgb(189,189,189)" stroke="rgb(189,189,189)" stroke-width="1" opacity="1" d="M 209.5 112 L 207.5 115 L 209.5 112 Z " /><path fill="rgb(189,189,189)" stroke="rgb(189,189,189)" stroke-width="1" opacity="1" d="M 187.5 120 L 186.5 122 L 187.5 120 Z " /><path fill="rgb(189,189,189)" stroke="rgb(189,189,189)" stroke-width="1" opacity="1" d="M 95.5 126 L 94.5 128 L 95.5 126 Z " /><path fill="rgb(189,189,189)" stroke="rgb(189,189,189)" stroke-width="1" opacity="1" d="M 108.5 135 L 109.5 137 L 108.5 135 Z " /><path fill="rgb(189,189,189)" stroke="rgb(189,189,189)" stroke-width="1" opacity="1" d="M 186.5 135 L 187 137.5 L 186 137.5 L 186.5 135 Z " /><path fill="rgb(189,189,189)" stroke="rgb(189,189,189)" stroke-width="1" opacity="1" d="M 129.5 140 L 129.5 143 Q 126.5 141.5 129.5 140 Z " /><path fill="rgb(189,189,189)" stroke="rgb(189,189,189)" stroke-width="1" opacity="1" d="M 139.5 142 L 142 142.5 L 139.5 143 L 139.5 142 Z " /><path fill="rgb(189,189,189)" stroke="rgb(189,189,189)" stroke-width="1" opacity="1" d="M 132.5 146 L 133.5 148 L 132.5 146 Z " /><path fill="rgb(189,189,189)" stroke="rgb(189,189,189)" stroke-width="1" opacity="1" d="M 121.5 148 L 122.5 150 L 121.5 148 Z " /><path fill="rgb(189,189,189)" stroke="rgb(189,189,189)" stroke-width="1" opacity="1" d="M 71.5 167 L 72 169.5 L 71 169.5 L 71.5 167 Z " /><path fill="rgb(189,189,189)" stroke="rgb(189,189,189)" stroke-width="1" opacity="1" d="M 322.5 167 L 323 169.5 L 322 169.5 L 322.5 167 Z " /><path fill="rgb(189,189,189)" stroke="rgb(189,189,189)" stroke-width="1" opacity="1" d="M 80.5 176 L 81 189.5 L 80 189.5 L 80.5 176 Z " /><path fill="rgb(189,189,189)" stroke="rgb(189,189,189)" stroke-width="1" opacity="1" d="M 313.5 176 L 314 189.5 L 313 189.5 L 313.5 176 Z " /><path fill="rgb(189,189,189)" stroke="rgb(189,189,189)" stroke-width="1" opacity="1" d="M 210.5 180 L 211.5 182 L 210.5 180 Z " /><path fill="rgb(189,189,189)" stroke="rgb(189,189,189)" stroke-width="1" opacity="1" d="M 199.5 182 L 200.5 184 L 199.5 182 Z " /><path fill="rgb(189,189,189)" stroke="rgb(189,189,189)" stroke-width="1" opacity="1" d="M 177.5 184 L 181 184.5 L 177.5 185 L 177.5 184 Z " /><path fill="rgb(189,189,189)" stroke="rgb(189,189,189)" stroke-width="1" opacity="1" d="M 188.5 184 L 192 184.5 L 188.5 185 L 188.5 184 Z " /><path fill="rgb(189,189,189)" stroke="rgb(189,189,189)" stroke-width="1" opacity="1" d="M 220.5 190 L 221.5 192 L 220.5 190 Z " /><path fill="rgb(189,189,189)" stroke="rgb(189,189,189)" stroke-width="1" opacity="1" d="M 150.5 194 L 149.5 196 L 150.5 194 Z " /><path fill="rgb(189,189,189)" stroke="rgb(189,189,189)" stroke-width="1" opacity="1" d="M 176.5 194 L 179 194.5 L 176.5 195 L 176.5 194 Z " /><path fill="rgb(189,189,189)" stroke="rgb(189,189,189)" stroke-width="1" opacity="1" d="M 191.5 194 L 194 194.5 L 191.5 195 L 191.5 194 Z " /><path fill="rgb(189,189,189)" stroke="rgb(189,189,189)" stroke-width="1" opacity="1" d="M 71.5 196 L 72 198.5 L 71 198.5 L 71.5 196 Z " /><path fill="rgb(189,189,189)" stroke="rgb(189,189,189)" stroke-width="1" opacity="1" d="M 322.5 196 L 323 198.5 L 322 198.5 L 322.5 196 Z " /><path fill="rgb(189,189,189)" stroke="rgb(189,189,189)" stroke-width="1" opacity="1" d="M 152.5 205 L 149.5 209 L 152.5 205 Z " /><path fill="rgb(189,189,189)" stroke="rgb(189,189,189)" stroke-width="1" opacity="1" d="M 205.5 244 L 204.5 246 L 205.5 244 Z " /><path fill="rgb(189,189,189)" stroke="rgb(189,189,189)" stroke-width="1" opacity="1" d="M 200.5 250 L 199.5 252 L 200.5 250 Z " /><path fill="rgb(189,189,189)" stroke="rgb(189,189,189)" stroke-width="1" opacity="1" d="M 186.5 251 L 184.5 254 L 186.5 251 Z " /><path fill="rgb(189,189,189)" stroke="rgb(189,189,189)" stroke-width="1" opacity="1" d="M 131.5 255 L 132 257.5 L 131 257.5 L 131.5 255 Z " /><path fill="rgb(189,189,189)" stroke="rgb(189,189,189)" stroke-width="1" opacity="1" d="M 106.5 256 L 107.5 258 L 106.5 256 Z " /><path fill="rgb(189,189,189)" stroke="rgb(189,189,189)" stroke-width="1" opacity="1" d="M 121.5 256 L 122 258.5 L 121 258.5 L 121.5 256 Z " /><path fill="rgb(189,189,189)" stroke="rgb(189,189,189)" stroke-width="1" opacity="1" d="M 95.5 258 L 96.5 260 L 95.5 258 Z " /><path fill="rgb(189,189,189)" stroke="rgb(189,189,189)" stroke-width="1" opacity="1" d="M 192.5 259 L 181.5 271 L 192.5 259 Z " /><path fill="rgb(189,189,189)" stroke="rgb(189,189,189)" stroke-width="1" opacity="1" d="M 175.5 262 L 173.5 265 L 175.5 262 Z " /><path fill="rgb(189,189,189)" stroke="rgb(189,189,189)" stroke-width="1" opacity="1" d="M 99.5 263 L 100.5 265 L 99.5 263 Z " /><path fill="rgb(189,189,189)" stroke="rgb(189,189,189)" stroke-width="1" opacity="1" d="M 294.5 263 L 293.5 265 L 294.5 263 Z " /><path fill="rgb(189,189,189)" stroke="rgb(189,189,189)" stroke-width="1" opacity="1" d="M 167.5 269 L 166.5 271 L 167.5 269 Z " /><path fill="rgb(189,189,189)" stroke="rgb(189,189,189)" stroke-width="1" opacity="1" d="M 271.5 272 L 270.5 274 L 271.5 272 Z " /><path fill="rgb(189,189,189)" stroke="rgb(189,189,189)" stroke-width="1" opacity="1" d="M 174.5 276 L 173.5 278 L 174.5 276 Z " /><path fill="rgb(189,189,189)" stroke="rgb(189,189,189)" stroke-width="1" opacity="1" d="M 115.5 279 L 116.5 281 L 115.5 279 Z " /><path fill="rgb(189,189,189)" stroke="rgb(189,189,189)" stroke-width="1" opacity="1" d="M 278.5 279 L 277.5 281 L 278.5 279 Z " /><path fill="rgb(189,189,189)" stroke="rgb(189,189,189)" stroke-width="1" opacity="1" d="M 273.5 283 L 272.5 285 L 273.5 283 Z " /><path fill="rgb(189,189,189)" stroke="rgb(189,189,189)" stroke-width="1" opacity="1" d="M 190.5 299 L 204 299.5 L 190.5 300 L 190.5 299 Z " /><path fill="rgb(189,189,189)" stroke="rgb(189,189,189)" stroke-width="1" opacity="1" d="M 181.5 308 L 184 308.5 L 181.5 309 L 181.5 308 Z " /><path fill="rgb(189,189,189)" stroke="rgb(189,189,189)" stroke-width="1" opacity="1" d="M 210.5 308 L 213 308.5 L 210.5 309 L 210.5 308 Z " /><path fill="rgb(0,0,0)" stroke="rgb(0,0,0)" stroke-width="1" opacity="1" d="M 0 0 L 395 0 L 395 366 L 0 366 L 0 0 Z M 189 56 L 188 57 L 179 57 L 169 59 L 150 65 Q 128 74 113 88 Q 91 107 79 136 L 73 155 L 71 165 L 71 173 L 70 174 L 71 202 L 77 226 Q 86 250 102 268 Q 121 289 150 301 L 169 307 L 179 309 L 187 309 L 188 310 L 216 309 L 240 303 Q 264 294 282 278 Q 303 259 315 231 L 321 212 L 323 202 L 323 194 L 324 193 L 323 165 L 317 141 Q 308 116 292 99 Q 273 77 245 65 L 216 57 L 189 56 Z " /><path fill="rgb(0,0,0)" stroke="rgb(0,0,0)" stroke-width="1" opacity="1" d="M 185.5 67 L 207.5 67 Q 209.2 69.7 215.5 68 Q 229.3 70.3 240 75.5 Q 214 88.5 197 110.5 L 190.5 118 Q 180.8 126.8 166.5 131 L 156.5 133 L 144.5 133 L 143.5 132 L 132.5 131 L 119.5 127 L 101 117.5 L 118.5 97 Q 129.9 86.4 144.5 79 L 161.5 72 L 185.5 67 Z " /><path fill="rgb(0,0,0)" stroke="rgb(0,0,0)" stroke-width="1" opacity="1" d="M 250.5 83 Q 259.1 81.9 261 87.5 L 263 94.5 L 263 104.5 L 259 125.5 L 253 143.5 Q 242.2 171.3 228 195 Q 217.1 190.1 210 179.5 L 200 163.5 L 197 154.5 L 196 140.5 L 198 130.5 L 202 121.5 L 223.5 99 L 238.5 88 L 250.5 83 Z " /><path fill="rgb(0,0,0)" stroke="rgb(0,0,0)" stroke-width="1" opacity="1" d="M 273.5 96 L 283 104.5 Q 299.2 122.3 308 147.5 L 313 171.5 L 313 193.5 L 309 214.5 L 302 233.5 Q 291.9 254.4 275.5 269 Q 257.7 285.2 232.5 294 L 208.5 299 L 186.5 299 L 165.5 295 L 154 290.5 Q 180 277.5 197 255.5 Q 230.7 217.2 254 168.5 L 269 129.5 L 273 111.5 L 274 97.5 L 273.5 96 Z " /><path fill="rgb(0,0,0)" stroke="rgb(0,0,0)" stroke-width="1" opacity="1" d="M 95.5 127 Q 107.9 133.6 117 143.5 Q 128.8 154.7 135 171.5 L 138 184.5 L 138 196.5 L 135 210.5 L 125 236.5 L 121 254.5 L 120 268.5 L 120.5 270 L 111 261.5 Q 94.8 243.7 86 218.5 L 81 194.5 L 81 172.5 L 85 151.5 Q 88.6 137.6 95.5 127 Z " /><path fill="rgb(0,0,0)" stroke="rgb(0,0,0)" stroke-width="1" opacity="1" d="M 185.5 134 L 186 140.5 Q 183.8 141.8 185 146.5 Q 187.8 148.3 186 154.5 L 190 167.5 Q 194 177.5 201 184.5 L 196.5 185 L 195.5 184 L 175.5 184 L 160.5 188 L 149.5 195 L 148 178.5 L 145 167.5 Q 139.3 152.2 129 141.5 L 130.5 141 L 136.5 143 L 153.5 144 L 154.5 143 L 162.5 143 L 171.5 141 L 185.5 134 Z " /><path fill="rgb(0,0,0)" stroke="rgb(0,0,0)" stroke-width="1" opacity="1" d="M 174.5 195 L 194.5 195 Q 195.7 197.3 200.5 196 Q 212.9 198.6 222 204.5 Q 200.2 239.7 170.5 267 L 155.5 278 L 143.5 283 L 138.5 283 L 133 278.5 L 131 271.5 L 131 261.5 L 135 240.5 L 143 217.5 L 154.5 204 Q 162.4 197.4 174.5 195 Z " /><path fill="rgb(254,254,254)" stroke="rgb(254,254,254)" stroke-width="1" opacity="1" d="M 223.5 86 L 222.5 88 L 223.5 86 Z " /><path fill="rgb(254,254,254)" stroke="rgb(254,254,254)" stroke-width="1" opacity="1" d="M 114.5 87 L 112.5 90 L 114.5 87 Z " /><path fill="rgb(254,254,254)" stroke="rgb(254,254,254)" stroke-width="1" opacity="1" d="M 279.5 87 L 281.5 90 L 279.5 87 Z " /><path fill="rgb(254,254,254)" stroke="rgb(254,254,254)" stroke-width="1" opacity="1" d="M 125.5 90 L 124.5 92 L 125.5 90 Z " /><path fill="rgb(254,254,254)" stroke="rgb(254,254,254)" stroke-width="1" opacity="1" d="M 218.5 90 L 217.5 92 L 218.5 90 Z " /><path fill="rgb(254,254,254)" stroke="rgb(254,254,254)" stroke-width="1" opacity="1" d="M 119.5 95 L 109.5 106 L 119.5 95 Z " /><path fill="rgb(254,254,254)" stroke="rgb(254,254,254)" stroke-width="1" opacity="1" d="M 274.5 95 L 284.5 106 L 274.5 95 Z " /><path fill="rgb(254,254,254)" stroke="rgb(254,254,254)" stroke-width="1" opacity="1" d="M 263.5 97 L 264 101.5 L 263 101.5 L 263.5 97 Z " /><path fill="rgb(254,254,254)" stroke="rgb(254,254,254)" stroke-width="1" opacity="1" d="M 103.5 98 L 101.5 101 L 103.5 98 Z " /><path fill="rgb(254,254,254)" stroke="rgb(254,254,254)" stroke-width="1" opacity="1" d="M 223.5 98 L 221.5 101 L 223.5 98 Z " /><path fill="rgb(254,254,254)" stroke="rgb(254,254,254)" stroke-width="1" opacity="1" d="M 290.5 98 L 292.5 101 L 290.5 98 Z " /><path fill="rgb(254,254,254)" stroke="rgb(254,254,254)" stroke-width="1" opacity="1" d="M 288.5 110 L 289.5 112 L 288.5 110 Z " /><path fill="rgb(254,254,254)" stroke="rgb(254,254,254)" stroke-width="1" opacity="1" d="M 197.5 111 L 190.5 119 L 197.5 111 Z " /><path fill="rgb(254,254,254)" stroke="rgb(254,254,254)" stroke-width="1" opacity="1" d="M 206.5 115 L 204.5 118 L 206.5 115 Z " /><path fill="rgb(254,254,254)" stroke="rgb(254,254,254)" stroke-width="1" opacity="1" d="M 100.5 117 L 101.5 119 L 100.5 117 Z " /><path fill="rgb(254,254,254)" stroke="rgb(254,254,254)" stroke-width="1" opacity="1" d="M 102.5 130 L 103.5 132 L 102.5 130 Z " /><path fill="rgb(254,254,254)" stroke="rgb(254,254,254)" stroke-width="1" opacity="1" d="M 106.5 133 L 107.5 135 L 106.5 133 Z " /><path fill="rgb(254,254,254)" stroke="rgb(254,254,254)" stroke-width="1" opacity="1" d="M 147.5 133 L 154 133.5 L 147.5 134 L 147.5 133 Z " /><path fill="rgb(254,254,254)" stroke="rgb(254,254,254)" stroke-width="1" opacity="1" d="M 113.5 139 L 119.5 146 L 113.5 139 Z " /><path fill="rgb(254,254,254)" stroke="rgb(254,254,254)" stroke-width="1" opacity="1" d="M 195.5 142 L 196 146.5 L 195 146.5 L 195.5 142 Z " /><path fill="rgb(254,254,254)" stroke="rgb(254,254,254)" stroke-width="1" opacity="1" d="M 123.5 150 L 124.5 152 L 123.5 150 Z " /><path fill="rgb(254,254,254)" stroke="rgb(254,254,254)" stroke-width="1" opacity="1" d="M 208.5 178 L 209.5 180 L 208.5 178 Z " /><path fill="rgb(254,254,254)" stroke="rgb(254,254,254)" stroke-width="1" opacity="1" d="M 181.5 184 L 188 184.5 L 181.5 185 L 181.5 184 Z " /><path fill="rgb(254,254,254)" stroke="rgb(254,254,254)" stroke-width="1" opacity="1" d="M 138.5 186 L 139 189.5 L 138 189.5 L 138.5 186 Z " /><path fill="rgb(254,254,254)" stroke="rgb(254,254,254)" stroke-width="1" opacity="1" d="M 138.5 192 L 139 194.5 L 138 194.5 L 138.5 192 Z " /><path fill="rgb(254,254,254)" stroke="rgb(254,254,254)" stroke-width="1" opacity="1" d="M 154.5 203 L 153.5 205 L 154.5 203 Z " /><path fill="rgb(254,254,254)" stroke="rgb(254,254,254)" stroke-width="1" opacity="1" d="M 148.5 209 L 147.5 211 L 148.5 209 Z " /><path fill="rgb(254,254,254)" stroke="rgb(254,254,254)" stroke-width="1" opacity="1" d="M 224.5 218 L 223.5 220 L 224.5 218 Z " /><path fill="rgb(254,254,254)" stroke="rgb(254,254,254)" stroke-width="1" opacity="1" d="M 217.5 228 L 216.5 230 L 217.5 228 Z " /><path fill="rgb(254,254,254)" stroke="rgb(254,254,254)" stroke-width="1" opacity="1" d="M 200.5 235 L 199.5 237 L 200.5 235 Z " /><path fill="rgb(254,254,254)" stroke="rgb(254,254,254)" stroke-width="1" opacity="1" d="M 208.5 240 L 207.5 242 L 208.5 240 Z " /><path fill="rgb(254,254,254)" stroke="rgb(254,254,254)" stroke-width="1" opacity="1" d="M 195.5 241 L 194.5 243 L 195.5 241 Z " /><path fill="rgb(254,254,254)" stroke="rgb(254,254,254)" stroke-width="1" opacity="1" d="M 203.5 246 L 202.5 248 L 203.5 246 Z " /><path fill="rgb(254,254,254)" stroke="rgb(254,254,254)" stroke-width="1" opacity="1" d="M 190.5 247 L 187.5 251 L 190.5 247 Z " /><path fill="rgb(254,254,254)" stroke="rgb(254,254,254)" stroke-width="1" opacity="1" d="M 198.5 252 L 196.5 255 L 198.5 252 Z " /><path fill="rgb(254,254,254)" stroke="rgb(254,254,254)" stroke-width="1" opacity="1" d="M 104.5 254 L 105.5 256 L 104.5 254 Z " /><path fill="rgb(254,254,254)" stroke="rgb(254,254,254)" stroke-width="1" opacity="1" d="M 109.5 260 L 119.5 271 L 109.5 260 Z " /><path fill="rgb(254,254,254)" stroke="rgb(254,254,254)" stroke-width="1" opacity="1" d="M 284.5 260 L 274.5 271 L 284.5 260 Z " /><path fill="rgb(254,254,254)" stroke="rgb(254,254,254)" stroke-width="1" opacity="1" d="M 130.5 264 L 131 268.5 L 130 268.5 L 130.5 264 Z " /><path fill="rgb(254,254,254)" stroke="rgb(254,254,254)" stroke-width="1" opacity="1" d="M 101.5 265 L 103.5 268 L 101.5 265 Z " /><path fill="rgb(254,254,254)" stroke="rgb(254,254,254)" stroke-width="1" opacity="1" d="M 172.5 265 L 170.5 268 L 172.5 265 Z " /><path fill="rgb(254,254,254)" stroke="rgb(254,254,254)" stroke-width="1" opacity="1" d="M 292.5 265 L 290.5 268 L 292.5 265 Z " /><path fill="rgb(254,254,254)" stroke="rgb(254,254,254)" stroke-width="1" opacity="1" d="M 176.5 274 L 175.5 276 L 176.5 274 Z " /><path fill="rgb(254,254,254)" stroke="rgb(254,254,254)" stroke-width="1" opacity="1" d="M 269.5 274 L 268.5 276 L 269.5 274 Z " /><path fill="rgb(254,254,254)" stroke="rgb(254,254,254)" stroke-width="1" opacity="1" d="M 112.5 276 L 114.5 279 L 112.5 276 Z " /><path fill="rgb(254,254,254)" stroke="rgb(254,254,254)" stroke-width="1" opacity="1" d="M 281.5 276 L 279.5 279 L 281.5 276 Z " /><path fill="rgb(255,255,255)" stroke="rgb(255,255,255)" stroke-width="1" opacity="1" d="M 185.5 57 L 208.5 57 Q 210.3 59.8 216.5 58 L 242.5 65 Q 270.9 76.6 290 97.5 Q 305.6 114.4 315 137.5 L 322 163.5 Q 320.3 169.8 323 171.5 L 323 194.5 L 322 195.5 L 322 202.5 L 320 212.5 L 312 235.5 Q 300.8 259.3 282.5 276 Q 264.6 292.6 239.5 302 L 216.5 308 Q 210.3 306.3 208.5 309 L 185.5 309 L 184.5 308 L 177.5 308 L 167.5 306 L 144.5 298 Q 120.8 286.8 104 268.5 Q 87.4 250.6 78 225.5 L 72 202.5 Q 73.7 196.3 71 194.5 L 71 171.5 L 72 170.5 L 72 163.5 L 74 153.5 L 82 130.5 Q 93.3 106.8 111.5 90 Q 125.8 76.8 144.5 68 L 167.5 60 L 177.5 58 L 184.5 58 L 185.5 57 Z M 189 66 L 188 67 L 174 68 L 154 74 Q 134 82 120 95 Q 108 105 100 118 L 107 122 L 123 129 L 148 134 Q 176 134 191 119 L 198 111 L 227 84 L 242 76 L 229 70 L 215 67 L 189 66 Z M 252 82 L 239 87 L 224 98 L 204 118 L 200 124 L 197 132 L 195 143 L 196 154 L 198 161 L 208 179 L 223 193 L 228 196 Q 244 171 255 141 L 262 117 L 263 103 L 264 102 L 263 91 L 260 84 Q 258 81 252 82 Z M 273 95 L 273 106 L 269 127 L 255 165 Q 231 216 196 256 Q 179 278 152 291 L 166 296 L 189 300 L 215 299 L 241 292 Q 260 284 275 271 Q 294 254 305 229 L 311 211 L 313 201 L 313 193 L 314 192 L 313 166 L 306 140 Q 298 120 285 106 L 275 95 L 273 95 Z M 96 126 Q 88 137 84 152 L 80 175 L 81 201 L 88 227 Q 96 246 109 261 L 120 271 L 121 271 L 121 261 L 122 260 L 123 248 Q 128 225 137 207 L 138 196 L 139 195 L 138 180 L 134 167 L 120 146 Q 110 134 96 126 Z M 186 133 L 175 139 L 157 143 L 144 143 L 128 140 L 138 155 L 143 165 Q 149 178 149 197 Q 158 188 174 185 L 197 185 L 202 186 L 190 166 L 186 150 L 186 139 L 187 138 Q 189 132 186 133 Z M 176 194 Q 163 196 155 203 Q 144 211 139 226 L 132 250 L 131 264 L 130 265 L 131 276 L 134 282 L 139 284 Q 149 284 156 279 L 171 268 L 201 236 L 219 211 L 222 203 Q 212 198 200 195 Q 195 196 194 194 L 176 194 Z " /></svg>